<?xml version="1.0" encoding="UTF-8" standalone="no"?>
<!-- Created with Inkscape (http://www.inkscape.org/) -->

<svg
   xmlns:dc="http://purl.org/dc/elements/1.1/"
   xmlns:cc="http://creativecommons.org/ns#"
   xmlns:rdf="http://www.w3.org/1999/02/22-rdf-syntax-ns#"
   xmlns:svg="http://www.w3.org/2000/svg"
   xmlns="http://www.w3.org/2000/svg"
   xmlns:sodipodi="http://sodipodi.sourceforge.net/DTD/sodipodi-0.dtd"
   xmlns:inkscape="http://www.inkscape.org/namespaces/inkscape"
   width="693.46246"
   height="549.19458"
   id="svg2"
   version="1.1"
   inkscape:version="0.47pre4 "
   sodipodi:docname="decorations1.svg">
  <defs
     id="defs4">
    <inkscape:perspective
       sodipodi:type="inkscape:persp3d"
       inkscape:vp_x="0 : 526.18109 : 1"
       inkscape:vp_y="0 : 1000 : 0"
       inkscape:vp_z="744.09448 : 526.18109 : 1"
       inkscape:persp3d-origin="372.04724 : 350.78739 : 1"
       id="perspective10" />
    <inkscape:perspective
       id="perspective10-7"
       inkscape:persp3d-origin="0.5 : 0.33333333 : 1"
       inkscape:vp_z="1 : 0.5 : 1"
       inkscape:vp_y="0 : 1000 : 0"
       inkscape:vp_x="0 : 0.5 : 1"
       sodipodi:type="inkscape:persp3d" />
    <inkscape:perspective
       id="perspective2832"
       inkscape:persp3d-origin="0.5 : 0.33333333 : 1"
       inkscape:vp_z="1 : 0.5 : 1"
       inkscape:vp_y="0 : 1000 : 0"
       inkscape:vp_x="0 : 0.5 : 1"
       sodipodi:type="inkscape:persp3d" />
    <inkscape:perspective
       id="perspective2845"
       inkscape:persp3d-origin="62.5 : 41.666667 : 1"
       inkscape:vp_z="125 : 62.5 : 1"
       inkscape:vp_y="0 : 1000 : 0"
       inkscape:vp_x="0 : 62.5 : 1"
       sodipodi:type="inkscape:persp3d" />
    <inkscape:perspective
       id="perspective2861"
       inkscape:persp3d-origin="0.5 : 0.33333333 : 1"
       inkscape:vp_z="1 : 0.5 : 1"
       inkscape:vp_y="0 : 1000 : 0"
       inkscape:vp_x="0 : 0.5 : 1"
       sodipodi:type="inkscape:persp3d" />
    <inkscape:perspective
       sodipodi:type="inkscape:persp3d"
       inkscape:vp_x="0 : 526.18109 : 1"
       inkscape:vp_y="0 : 1000 : 0"
       inkscape:vp_z="744.09448 : 526.18109 : 1"
       inkscape:persp3d-origin="372.04724 : 350.78739 : 1"
       id="perspective3077" />
    <inkscape:perspective
       id="perspective10-4"
       inkscape:persp3d-origin="372.04724 : 350.78739 : 1"
       inkscape:vp_z="744.09448 : 526.18109 : 1"
       inkscape:vp_y="0 : 1000 : 0"
       inkscape:vp_x="0 : 526.18109 : 1"
       sodipodi:type="inkscape:persp3d" />
    <inkscape:perspective
       id="perspective2887"
       inkscape:persp3d-origin="0.5 : 0.33333333 : 1"
       inkscape:vp_z="1 : 0.5 : 1"
       inkscape:vp_y="0 : 1000 : 0"
       inkscape:vp_x="0 : 0.5 : 1"
       sodipodi:type="inkscape:persp3d" />
    <inkscape:perspective
       id="perspective2901"
       inkscape:persp3d-origin="0.5 : 0.33333333 : 1"
       inkscape:vp_z="1 : 0.5 : 1"
       inkscape:vp_y="0 : 1000 : 0"
       inkscape:vp_x="0 : 0.5 : 1"
       sodipodi:type="inkscape:persp3d" />
  </defs>
  <sodipodi:namedview
     id="base"
     pagecolor="#ffffff"
     bordercolor="#666666"
     borderopacity="1.0"
     inkscape:pageopacity="0.0"
     inkscape:pageshadow="2"
     inkscape:zoom="0.95263641"
     inkscape:cx="353.51742"
     inkscape:cy="284.83379"
     inkscape:document-units="px"
     inkscape:current-layer="layer1"
     showgrid="false"
     inkscape:window-width="1280"
     inkscape:window-height="708"
     inkscape:window-x="-4"
     inkscape:window-y="-4"
     inkscape:window-maximized="1" />
  <metadata
     id="metadata7">
    <rdf:RDF>
      <cc:Work
         rdf:about="">
        <dc:format>image/svg+xml</dc:format>
        <dc:type
           rdf:resource="http://purl.org/dc/dcmitype/StillImage" />
        <dc:title></dc:title>
      </cc:Work>
    </rdf:RDF>
  </metadata>
  <g
     inkscape:label="Layer 1"
     inkscape:groupmode="layer"
     id="layer1"
     transform="translate(-41.345589,-36.456759)">
    <path
       sodipodi:nodetypes="cssssscccsssccsssssscccssscccssssssssssssssssssssssssssssscccssssssssssssssssssssssssssssssssssssssssssccsssccssssssssssscccssssssssssscccsccssssscccsssssssssccssssssccssssccsssssssssccsssssc"
       id="path2818"
       d="m 137.29298,351.2763 c 1.60113,-0.64695 33.38826,-30.59584 46.18776,-43.51674 13.6905,-13.82035 21.86192,-27.59897 25.19927,-42.4909 5.00568,-22.33638 -3.55356,-43.34427 -21.18795,-52.00396 -4.8959,-2.40422 -8.74081,-3.40969 -15.19106,-3.10416 -8.052,0.3814 -4.19548,-0.0535 -16.13723,4.50675 -5.91534,2.25894 -10.68209,6.29907 -15.13971,10.54264 l -6.66128,6.34142 -6.55519,-6.17944 c -19.22456,-18.12257 -41.319608,-20.05881 -56.599228,-4.95993 -14.33962,14.17 -16.73658,36.67568 -6.32577,59.39436 6.57578,14.34979 11.9564,20.52901 46.529748,53.43568 18.44293,17.55385 21.60919,19.76018 25.88064,18.03428 z m -4.94742,-12.06024 c -2.53603,-9.13179 -0.29418,-18.64929 4.68734,-19.89957 5.49144,-1.37827 12.31483,3.29706 12.1924,8.35412 -0.0652,2.6942 -0.10614,2.71586 -1.12928,0.59821 -1.52389,-3.15409 -5.76191,-4.40416 -9.06456,-2.67372 -3.21109,1.68246 -4.59415,7.26569 -2.90704,11.73535 0.82011,2.17274 0.82681,3.34246 0.0247,4.30897 -1.78012,2.14491 -2.69713,1.56066 -3.80355,-2.42336 l -1e-5,0 z m 8.58579,-4.75 c -0.31658,-0.825 -0.30913,-2.19443 0.0166,-3.04317 0.52425,-1.36618 0.80698,-1.34877 2.46508,0.15179 1.42494,1.28955 1.60529,2.01744 0.754,3.04317 -1.45817,1.757 -2.52233,1.70708 -3.23565,-0.15179 l -3e-5,0 z m -18.7758,-6.4785 c 0.63343,-8.77295 -6.34827,-15.17657 -14.11734,-12.94843 -2.92896,0.84001 -3.53044,0.59977 -6.73081,-2.68841 -2.711768,-2.78617 -3.171838,-3.73448 -2.014418,-4.15216 0.824998,-0.29772 3.148078,-2.17947 5.162398,-4.18166 5.33762,-5.30547 7.14937,-12.40604 6.67816,-26.17291 -0.20478,-5.98286 -0.0974,-10.87792 0.23857,-10.87792 0.33599,0 1.41685,0.89057 2.4019,1.97904 2.15611,2.38248 11.48313,6.02096 15.43436,6.02096 5.83696,0 12.04015,-4.01569 14.95964,-9.68426 2.61031,-5.06825 0.61289,-12.67398 -4.73218,-18.01904 -1.72857,-1.72857 -3.14285,-3.64678 -3.14285,-4.26268 0,-2.19187 16.5247,-17.59973 21.40537,-19.95866 4.77788,-2.30924 4.93914,-2.32154 6.20435,-0.47312 6.91448,10.1018 19.51585,13.48387 26.23934,7.04237 2.14026,-2.0505 3.02299,-2.37256 3.95325,-1.4423 1.70792,1.70792 1.48696,3.22592 -0.76638,5.26516 -2.26897,2.0534 -5.45563,9.77344 -4.82061,11.67849 0.2581,0.7743 -1.48021,2.1783 -4.33398,3.50047 -2.62071,1.21419 -6.0592,3.16452 -7.64108,4.33406 -3.58495,2.65046 -12.22951,3.64801 -18.02943,2.08052 -6.43165,-1.73822 -10.30171,-5.67533 -10.90452,-11.09345 -0.53124,-4.7748 0.94092,-7.46034 5.37795,-9.81059 7.04353,-3.73088 18.06628,2.69248 13.11574,7.64303 -1.86429,1.86428 -2.81831,1.44593 -3.9219,-1.71983 -1.24105,-3.56007 -3.30415,-4.51127 -5.34916,-2.46626 -3.95745,3.95745 0.66689,10.38609 7.47106,10.38609 10.73698,0 12.07045,-12.21993 1.95391,-17.90575 -10.42348,-5.85832 -23.95391,1.19586 -23.95391,12.48853 0,5.48766 1.07034,8.21648 4.63244,11.81034 4.35769,4.39654 9.9812,6.55984 17.11756,6.58491 l 6.25,0.022 0,4.03212 c 0,8.81003 5.4817,14.9565 13.3457,14.96415 7.12304,0.007 11.69063,-4.43131 11.62249,-11.29332 -0.0356,-3.58314 -1.41208,-5.81377 -4.65272,-7.53975 -2.53389,-1.34955 -6.71883,-0.16041 -7.61019,2.16243 -0.76291,1.98813 0.0978,2.67437 3.35439,2.67437 3.41743,0 4.49846,2.49923 2.43996,5.64091 -2.23022,3.40374 -7.6454,3.26053 -10.42705,-0.27576 -3.81491,-4.84987 -1.88938,-11.37898 4.6704,-15.83647 4.59217,-3.12046 7.40812,-3.18325 13.50702,-0.30116 5.66672,2.67785 5.77866,3.41295 2.23022,14.64575 -2.30082,7.28337 -2.78343,8.03442 -5.55385,8.64291 -4.07511,0.89504 -10.7617,7.41048 -11.52575,11.23071 -0.51428,2.5714 -1.2064,3.18145 -4.25737,3.75253 -2.00379,0.37507 -5.64424,1.5927 -8.08989,2.70584 -7.55607,3.43915 -18.52517,1.16909 -24.83358,-5.13932 -4.20934,-4.20934 -4.57401,-10.80262 -0.80591,-14.57072 6.24077,-6.24077 18.27291,-3.36156 17.41108,4.16635 -0.46827,4.09024 -4.1096,3.96831 -4.82495,-0.16157 -0.71787,-4.14437 -4.90331,-4.29008 -6.26068,-0.21795 -1.8117,5.43507 4.21391,10.51211 10.97153,9.24438 8.5755,-1.60878 8.30223,-13.04784 -0.45384,-18.99775 -4.08795,-2.77783 -11.58549,-3.45499 -15.57275,-1.40649 -10.79818,5.54768 -12.30103,17.52421 -3.32529,26.49994 3.99006,3.99007 11.76384,7.37787 16.92952,7.37787 1.25817,0 1.73544,0.49525 1.37713,1.42899 -1.37648,3.58706 -1.70927,8.32601 -0.76002,10.82273 1.29356,3.40232 0.65267,5.15246 -2.68845,7.34165 -1.86171,1.21984 -2.7292,1.3705 -3.01168,0.52305 -0.86028,-2.58084 -5.77863,-7.45795 -8.7898,-8.7161 -2.75418,-1.15077 -3.27121,-1.96565 -3.87933,-6.11402 -0.71226,-4.85881 -3.34959,-11.48111 -5.72788,-14.38262 -4.03405,-4.92154 -12.86998,-6.26484 -18.46467,-2.80713 -10.21955,6.31603 -7.67238,21.90345 3.57928,21.90345 5.28483,0 8.32108,-2.81412 7.88589,-7.30896 -0.23444,-2.42138 -0.79135,-3.19104 -2.30896,-3.19104 -1.43845,0 -2.08885,0.77215 -2.31643,2.75 -0.59766,5.19426 -7.18357,2.70735 -7.18357,-2.7126 0,-3.74543 3.65584,-7.5374 7.26682,-7.5374 3.59059,0 8.46213,3.86532 10.13228,8.03944 2.61997,6.54794 2.12156,10.06777 -1.98442,14.01439 -4.86053,4.67189 -6.41468,7.96951 -6.41468,13.6108 0,4.49731 -0.0958,4.6681 -1.71247,3.05147 -1.17165,-1.17164 -1.62167,-2.9701 -1.42496,-5.6946 z m 42.76257,-17.83279 c 1.1999,-5.10079 8.5727,-11.1887 13.55017,-11.1887 1.90749,0 1.08012,1.20253 -5.12606,7.45041 -4.07038,4.09773 -7.77327,7.22015 -8.22864,6.93871 -0.45538,-0.28144 -0.54334,-1.72162 -0.19547,-3.20042 z M 88.077332,299.25366 c -3.64689,-3.59205 -4.78435,-5.44112 -4.78435,-7.7775 0,-4.44508 2.59226,-7.69408 5.83814,-7.31719 3.68768,0.42819 3.96645,3.31234 0.4816,4.98258 -3.51305,1.68376 -4.0988,4.33721 -1.28934,5.84078 4.31172,2.30757 9.9696,-2.29666 9.9696,-8.11298 0,-2.79171 -2.60421,-7.53743 -4.5448,-8.2821 -4.97154,-1.90776 -12.41074,1.51264 -13.96914,6.42274 -0.34146,1.07584 -0.9931,1.95608 -1.4481,1.95608 -1.24224,0 -8.82442,-15.96177 -9.57178,-20.15022 -0.61255,-3.43292 -0.47557,-3.68881 2.30122,-4.2987 5.65605,-1.24227 12.23705,-9.96155 12.22886,-16.20221 -0.006,-4.27519 -3.53274,-9.23913 -7.97947,-11.22999 l -3.94189,-1.76484 2.4986,-3.67702 c 1.37423,-2.02236 2.86115,-3.67702 3.30426,-3.67702 0.44312,0 1.31604,1.70346 1.93982,3.78548 1.92819,6.43572 10.31543,13.21452 16.35,13.21452 7.498668,0 10.572768,18.39267 3.68978,22.07633 -7.41895,3.97051 -15.74809,-3.2453 -9.87802,-8.55764 1.91212,-1.73044 2.04408,-1.71134 3.88539,0.56258 1.57648,1.94687 2.16736,2.13698 3.41742,1.09953 3.07677,-2.5535 -1.04278,-8.1808 -5.98888,-8.1808 -1.24394,0 -3.73132,1.31308 -5.52749,2.91797 -2.77189,2.47668 -3.26578,3.59873 -3.26578,7.41943 0,3.42141 0.59984,5.14343 2.5,7.17705 5.52944,5.91777 11.5157,6.98204 17.277858,3.07173 l 3.55696,-2.41382 0.64262,8.16382 c 1.23694,15.71403 -3.53878,27.23113 -11.443088,27.59614 -0.80611,0.0372 -3.61861,-2.05291 -6.25,-4.64473 z M 120.1983,266.90294 c -5.33437,-2.69939 -9.63745,-8.19713 -11.49892,-14.69133 -0.90579,-3.16005 -2.31333,-6.89592 -3.12789,-8.30194 -1.3756,-2.37447 -1.29049,-2.83706 1.19595,-6.5 2.2805,-3.35957 2.62871,-4.79543 2.35124,-9.69543 -0.17913,-3.1635 -0.0927,-5.751 0.19217,-5.75 1.69078,0.006 9.51349,6.30826 15.98213,12.87589 l 7.5,7.61477 -4.71413,0.54757 c -9.381,1.08965 -12.96311,8.94021 -6.8628,15.04052 3.50452,3.50451 8.11157,3.88844 11.07693,0.92308 2.38149,-2.3815 2.54343,-4.30411 0.505,-5.99585 -1.20526,-1.00028 -1.98594,-0.91905 -4.02824,0.41912 -1.39329,0.91291 -2.97054,1.38959 -3.50501,1.05927 -1.65835,-1.02492 -1.06905,-4.36011 0.96251,-5.44736 3.30466,-1.7686 5.96073,-1.15833 9.64213,2.21542 2.64522,2.42416 3.69119,4.3255 4.1141,7.47849 0.5105,3.80612 0.25132,4.52284 -2.59812,7.18461 -4.7768,4.46221 -9.80012,4.76125 -17.18705,1.02317 z M 67.292982,254.46607 c 0,-2.08085 0.477,-2.5 2.84501,-2.5 3.64576,0 6.57331,-3.10663 5.65478,-6.00066 -0.37426,-1.17919 -1.20232,-1.92961 -1.84013,-1.6676 -4.67438,1.92023 -4.65966,1.92218 -4.65966,-0.61777 0,-2.91835 1.5903,-3.78932 4.76454,-2.60942 4.89501,1.81953 4.91737,9.30242 0.0401,13.40641 -3.92479,3.30246 -6.80464,3.29782 -6.80464,-0.011 z m 129.499998,-5.07485 c -2.3886,-1.80488 -2.78729,-9.16914 -0.6367,-11.76045 1.81611,-2.18827 3.1367,-1.20508 3.1367,2.3353 0,1.58508 0.45,3.16008 1,3.5 0.55,0.33992 1,2.16647 1,4.05901 0,3.77166 -1.27724,4.30132 -4.5,1.86614 z M 89.545862,234.57251 c -2.07676,-1.87791 -4.51176,-5.44732 -5.45204,-7.99202 -1.63322,-4.42 -1.62606,-4.63759 0.18426,-5.60645 2.66434,-1.42591 3.0149,-1.28869 3.0149,1.18015 0,3.14217 4.05105,8.60787 6.91219,9.32597 2.77207,0.69575 7.379268,-2.16506 7.920388,-4.91811 0.76413,-3.8877 -4.563988,-6.33909 -5.553518,-2.55509 -0.71494,2.7339 -2.70367,1.93572 -3.08287,-1.23731 -0.2276,-1.90449 0.2383,-2.68394 1.85732,-3.10733 7.975458,-2.08562 12.341388,9.06269 6.023408,15.38067 -3.886058,3.88606 -7.149818,3.7562 -11.824038,-0.47048 z m 85.764798,-8.73676 c -3.42349,-2.08698 -5.92325,-4.64262 -5.98588,-6.11968 -0.0543,-1.28137 3.92206,-0.82522 7.09085,0.81342 1.78578,0.92346 4.12708,1.321 5.71979,0.97118 1.58672,-0.3485 3.46043,-0.0336 4.55274,0.7651 1.7697,1.29403 1.72752,1.45862 -0.90431,3.52882 -3.46556,2.72601 -6.05228,2.73617 -10.47319,0.0412 z"
       style="fill:#000000" />
    <path
       style="fill:#000000"
       d="m 310.00062,529.88793 c -12.91308,-4.59932 -22.51986,-14.53397 -25.737,-26.61537 -1.71955,-6.45747 -0.44633,-15.73132 3.28963,-23.961 0.84112,-1.85285 1.35861,-3.36881 1.14997,-3.36881 -0.20863,0 -1.853,0.97596 -3.65415,2.16879 -8.64076,5.72249 -21.42787,10.66478 -27.59282,10.66478 -1.97725,0 -3.58755,-0.21657 -3.57845,-0.48126 0.009,-0.2647 1.13628,-0.99706 2.50483,-1.62748 1.36856,-0.63042 5.62025,-4.23986 9.44821,-8.02098 9.35941,-9.24489 11.09695,-10.08316 20.90009,-10.08316 l 7.52339,0 4.66851,-4.57226 c 6.94687,-6.80365 19.9736,-15.07469 30.30671,-19.2426 l 3.17947,-1.28245 -5.42534,-3.85685 -5.42534,-3.85686 -0.1848,5.6802 c -0.11717,3.60152 -0.42092,5.53427 -0.83002,5.28143 -1.51797,-0.93816 -11.15244,-4.03126 -11.63251,-3.73456 -0.28959,0.17898 -0.93884,1.31224 -1.4428,2.51837 -1.30831,3.13123 -5.74062,7.12995 -8.47077,7.64213 -1.25117,0.23472 -2.42267,0.27896 -2.60332,0.0983 -0.18066,-0.18065 0.28198,-1.31619 1.02808,-2.52341 1.61322,-2.61024 1.6698,-3.58086 0.38764,-6.64949 -0.89051,-2.13131 -1.05925,-2.23974 -2.08545,-1.34013 -2.50003,2.19161 -5.52383,3.15228 -10.79371,3.42915 -2.97125,0.15611 -5.40228,0.1733 -5.40228,0.0382 0,-0.13508 0.54879,-1.50953 1.21954,-3.05431 0.67074,-1.54479 1.4136,-4.0098 1.65079,-5.47781 0.46554,-2.88126 0.55923,-2.79054 -3.83285,-3.71099 -2.6857,-0.56284 -8.66266,-2.98281 -8.66266,-3.50736 0,-0.23874 1.22721,-0.78026 2.72713,-1.20338 1.49993,-0.42313 3.16684,-1.13272 3.70425,-1.57687 1.66398,-1.37522 5.76051,-6.67475 5.76051,-7.45216 0,-0.90859 -6.80437,-5.98306 -9.54478,-7.11817 -1.10299,-0.45687 -1.99992,-1.01221 -1.99319,-1.23409 0.0171,-0.56289 8.84336,-4.34905 11.37755,-4.88057 1.147,-0.24057 2.07343,-0.7754 2.05872,-1.18851 -0.0147,-0.41311 -1.00562,-3.63433 -2.20204,-7.15826 -1.19642,-3.52393 -2.028,-6.55445 -1.84796,-6.73449 0.18004,-0.18003 3.93892,1.5251 8.35307,3.78918 6.53056,3.34963 8.13504,3.94676 8.61249,3.20526 1.24663,-1.93605 1.99623,-6.18972 1.66335,-9.4388 l -0.34774,-3.39411 2.36254,1.41104 c 1.2994,0.77608 3.29308,2.09551 4.43041,2.93209 2.31598,1.70355 5.95312,6.66226 5.95312,8.11621 0,0.74752 0.91652,0.93798 4.33133,0.90007 3.51433,-0.039 5.26936,0.34656 9.30433,2.04409 2.73516,1.1507 4.97301,2.32688 4.97301,2.61376 0,0.28687 -1.51596,0.72267 -3.36881,0.96845 -1.85285,0.24577 -4.37238,0.91418 -5.59897,1.48535 l -2.23015,1.03848 6.9614,0.77148 c 3.82877,0.42431 7.23633,1.04641 7.57235,1.38243 0.78416,0.78416 -3.19409,8.69804 -5.75853,11.45534 l -1.88034,2.02176 2.17505,3.24515 c 1.19628,1.78483 3.09391,3.89943 4.21697,4.69911 l 2.04191,1.45398 -3.37723,1.01793 -3.37722,1.01794 4.03892,2.5863 c 6.86925,4.39868 6.53418,4.305 11.31745,3.16425 14.21599,-3.39034 30.35794,-4.84364 40.27148,-3.62575 16.68512,2.04978 27.78955,6.95194 44.06651,19.45361 l 4.8027,3.68876 6.58061,0.6753 c 10.46809,1.07422 21.98123,4.1745 29.32502,7.89668 6.75844,3.4255 7.01252,2.335 1.78826,-7.67521 -2.32753,-4.45978 -4.11863,-8.22193 -3.98023,-8.36034 0.1384,-0.13839 1.3788,0.22376 2.75646,0.8048 1.37765,0.58104 4.23735,1.45967 6.35488,1.95252 2.11754,0.49285 4.3554,1.05135 4.97301,1.24111 0.86468,0.26567 1.12294,-0.0287 1.12294,-1.28 0,-1.72149 1.20838,-5.63864 3.13481,-10.16192 l 1.1658,-2.73731 1.62985,3.20839 c 0.89641,1.76462 2.76753,4.49001 4.15801,6.05643 l 2.5282,2.84803 1.9348,-1.3777 c 3.0312,-2.15837 6.5537,-6.35694 6.9742,-8.31268 1.0203,-4.74524 1.3517,-4.52038 3.5226,2.39012 1.1641,3.70569 2.1529,6.79814 2.1973,6.87211 0.1844,0.30688 8.417,-2.49397 8.9772,-3.05416 1.559,-1.55896 1.9524,-0.42111 1.8107,5.23811 -0.1204,4.81267 -0.4202,6.33858 -1.6926,8.61509 l -1.5462,2.76652 1.829,0.75758 c 1.6109,0.66726 2.4631,0.48632 7.1468,-1.51745 5.2818,-2.25958 16.3361,-5.31317 21.4772,-5.93272 4.693,-0.56555 7.5365,-0.83648 9.187,-0.87533 0.8823,-0.0208 2.3753,-0.6871 3.3178,-1.48074 14.6886,-12.36909 29.2053,-19.41165 44.4873,-21.5824 10.0779,-1.43154 30.558,0.22893 43.2631,3.50765 l 3.479,0.89782 3.9003,-2.21399 c 2.1451,-1.21768 4.6915,-2.7491 5.6585,-3.40314 l 1.7583,-1.18916 -3.2021,-0.82066 c -3.3785,-0.8659 -4.0299,-1.63617 -1.9436,-2.29835 0.6922,-0.21968 2.5271,-2.2142 4.0776,-4.43226 l 2.8192,-4.03285 -1.7471,-1.39095 c -1.3188,-1.04995 -5.7646,-8.86136 -6.6294,-11.64807 -0.1787,-0.57586 6.8681,-1.7998 10.7271,-1.86316 3.1388,-0.0515 3.6447,-0.21074 3.0286,-0.95311 -0.8125,-0.97898 -5.4576,-2.31716 -8.0435,-2.31716 -2.6038,0 -1.9264,-0.99789 1.9108,-2.81474 4.6638,-2.20818 8.9774,-3.14059 12.2722,-2.65267 2.5893,0.38344 2.6828,0.33443 3.1148,-1.63251 0.551,-2.50868 4.1906,-6.63778 7.9771,-9.04981 3.8907,-2.47846 4.5827,-2.39537 3.7955,0.45572 -0.4683,1.69592 -0.3752,3.1214 0.3667,5.61469 1.619,5.44092 1.1647,5.40613 10.3066,0.78923 4.5402,-2.2929 8.3836,-4.04017 8.5409,-3.88282 0.1574,0.15736 -0.2091,1.52373 -0.8143,3.03639 -0.6053,1.51266 -1.7559,4.81412 -2.5569,7.33659 l -1.4564,4.58631 2.1892,0.35526 c 2.4667,0.40029 11.1057,4.22312 11.1057,4.91436 0,0.24708 -1.0828,0.93957 -2.4063,1.53888 -1.3235,0.59931 -3.8163,2.31588 -5.5397,3.81461 -3.7115,3.22774 -3.6654,3.92465 0.551,8.32512 2.0451,2.13443 3.6753,3.18342 5.7649,3.70959 1.6024,0.40348 2.9135,0.94801 2.9135,1.21006 0,0.71587 -6.9442,3.23015 -10.1257,3.66623 l -2.7894,0.38232 0.4357,2.63433 c 0.2396,1.44888 0.9729,4.0609 1.6297,5.80448 0.6567,1.74358 1.1287,3.2056 1.0488,3.24895 -0.08,0.0433 -2.7854,-0.0955 -6.0124,-0.30844 -5.0556,-0.33367 -6.2334,-0.64098 -8.5139,-2.22133 -1.4556,-1.00875 -2.7273,-1.71902 -2.8259,-1.57835 -0.6939,0.98982 -1.7225,4.07226 -1.7225,5.16196 0,0.72413 0.471,2.30903 1.0465,3.52199 0.5756,1.21296 0.9134,2.33858 0.7505,2.50139 -0.1628,0.16282 -1.626,-0.15716 -3.2516,-0.71105 -3.0856,-1.05138 -5.2709,-3.3186 -7.3001,-7.57392 -0.6095,-1.27809 -1.2892,-2.32379 -1.5106,-2.32379 -0.2214,0 -2.9652,0.86626 -6.0975,1.92503 -3.1322,1.05877 -5.7852,1.92504 -5.8955,1.92504 -0.1102,0 -0.2036,-1.37159 -0.2075,-3.04797 0,-1.67639 -0.1805,-4.09683 -0.3925,-5.37875 l -0.3855,-2.33076 -4.2596,3.20166 c -2.3428,1.76091 -4.6206,3.34597 -5.0618,3.52236 -1.2441,0.49742 -0.9493,1.33506 0.6417,1.82347 4.9503,1.51963 18.9074,9.28113 25.5623,14.21513 1.9105,1.41649 5.2779,4.37945 7.4831,6.58435 3.5535,3.55312 4.2101,3.95663 5.7751,3.54899 5.5643,-1.44942 11.8481,-0.68606 16.9456,2.05856 1.6434,0.88485 5.326,4.00847 8.1834,6.94139 2.8575,2.93292 6.3495,6.24665 7.7601,7.36386 10.1867,8.06803 -12.6301,1.95616 -25.849,-6.9241 -2.7245,-1.83024 -4.9536,-3.22344 -4.9536,-3.096 0,0.12743 0.6982,1.49527 1.5516,3.03965 2.0476,3.70548 4.8642,14.19415 4.8648,18.11562 0,14.12456 -11.4359,28.53604 -26.5503,33.45273 -4.6843,1.5238 -6.2185,1.7366 -10.6634,1.4793 -4.566,-0.2643 -5.8566,-0.6419 -10.707,-3.1322 -8.6173,-4.42433 -14.0646,-11.29258 -16.5625,-20.88278 -1.24,-4.76058 -1.2219,-7.6036 0.073,-11.40263 1.3661,-4.00923 6.496,-9.22085 11.4726,-11.65533 3.5051,-1.71466 4.3905,-1.87345 9.882,-1.77232 4.8138,0.0886 6.3689,0.35914 7.7002,1.3394 0.9174,0.67559 2.8711,1.41923 4.3415,1.65253 2.3919,0.37953 3.7693,0.92029 8.2351,3.23301 0.7059,0.36554 4.2431,0.78256 7.8606,0.92673 3.6175,0.14416 6.5772,0.49136 6.5772,0.77155 0,0.28019 -1.4605,1.82252 -3.2455,3.42739 -3.6508,3.28243 -8.7779,5.93715 -12.6678,6.55917 -2.5128,0.40181 -2.5825,0.47765 -1.9371,2.10651 1.0672,2.69297 0.8497,11.52602 -0.3852,15.64621 -0.6082,2.0293 -1.3267,3.68965 -1.5967,3.68965 -0.8642,0 -8.7325,-8.56972 -10.3102,-11.22938 -0.8374,-1.41169 -1.6109,-2.68112 -1.7189,-2.82095 -0.1079,-0.13983 -1.4294,0.87889 -2.9365,2.26384 -1.5072,1.38494 -3.4541,3.01526 -4.3267,3.62292 -1.2389,0.86289 -1.6605,1.83879 -1.925,4.45621 l -0.3387,3.35137 -2.2458,-4.15334 c -2.0155,-3.72734 -2.242,-4.64695 -2.208,-8.96592 0.044,-5.55905 1.4199,-8.8786 4.9746,-11.99965 1.7703,-1.55429 2.0755,-2.15557 1.5612,-3.07467 -0.4276,-0.76412 -0.4181,-1.86369 0.029,-3.31986 l 0.6682,-2.17733 -2.352,0.42581 c -3.5074,0.63495 -7.9319,4.17191 -10.0214,8.01113 -3.1032,5.70145 -2.2346,12.28436 2.5771,19.53358 8.7585,13.19515 23.4726,15.82035 37.2095,6.63875 9.0223,-6.03046 13.1725,-15.08842 12.2655,-26.76995 -0.4277,-5.50779 -2.3554,-13.00046 -4.3767,-17.01106 -3.6168,-7.17657 -11.1727,-15.40245 -19.6395,-21.38117 -2.3785,-1.67953 -4.4689,-3.20791 -4.6454,-3.39639 -0.7935,-0.84756 -7.2066,-3.92795 -12.0576,-5.7916 -5.2196,-2.00527 -5.3527,-2.02215 -7.0584,-0.89564 -0.9562,0.6315 -3.5441,2.0445 -5.7509,3.14001 l -4.0123,1.99183 5.1017,2.00584 c 6.8213,2.68192 14.2077,7.52922 19.2498,12.63267 2.2743,2.30189 3.999,4.3213 3.8327,4.48757 -0.1663,0.16627 -1.5939,0.008 -3.1725,-0.35204 -1.5785,-0.35989 -7.9233,-0.71121 -14.0995,-0.7807 -10.167,-0.11441 -11.4797,-0.2589 -13.8758,-1.52732 -4.7911,-2.53632 -7.5238,-7.34316 -6.3239,-11.12369 0.3864,-1.21749 0.2735,-1.36495 -0.7412,-0.96827 -4.9001,1.91561 -11.8484,3.91702 -18.1535,5.229 -4.085,0.85002 -7.4714,1.54777 -7.5253,1.55057 -0.054,0.003 1.9052,1.93899 4.3535,4.30265 5.7315,5.53336 8.173,10.31281 9.0165,17.65066 0.8865,7.71187 1.6067,9.90971 4.1811,12.75927 1.2639,1.39907 2.1326,2.7093 1.9303,2.91161 -1.0661,1.06612 -9.0833,-3.31364 -13.5143,-7.38284 -2.4076,-2.211 -6.1162,-7.975 -7.5753,-11.77376 -1.6888,-4.39684 -2.5988,-11.20157 -1.954,-14.61243 l 0.5458,-2.88756 -20.9779,0.0107 -20.9779,0.0106 -3.4528,2.94865 c -1.8991,1.62175 -5.2332,4.09884 -7.4091,5.50462 l -3.9561,2.55597 3.165,-0.30411 c 2.646,-0.25426 3.8625,0.0393 7.4187,1.78997 2.3395,1.15174 5.2943,3.02546 6.5662,4.16382 3.5933,3.21597 10.5917,7.79631 13.3195,8.71738 l 2.4683,0.83346 -2.5667,0.79166 c -6.2812,1.93736 -25.2144,0.36074 -30.9931,-2.58088 -4.6666,-2.37557 -6.1504,-4.28886 -5.7339,-7.39397 l 0.3453,-2.57429 -2.3429,1.00731 c -4.6354,1.99304 -9.3392,3.45612 -13.3654,4.15725 -4.4973,0.78318 -4.5523,0.90945 -2.3108,5.31205 1.0867,2.13464 0.3942,2.97435 -2.3877,2.895 -0.8823,-0.0252 -3.1266,0.16516 -4.9874,0.42295 -2.6884,0.37245 -3.3201,0.68061 -3.0764,1.50057 0.3336,1.12237 -1.1167,9.46372 -1.7568,10.10378 -0.2164,0.21646 -1.105,-0.45192 -1.9745,-1.48528 -0.8695,-1.03337 -2.9865,-2.75261 -4.7044,-3.82053 l -3.1235,-1.94168 -1.1671,1.54727 c -1.4752,1.95568 -10.81186,7.95463 -11.42547,7.34103 -0.25199,-0.25199 -0.91306,-3.34296 -1.46904,-6.86881 -0.55598,-3.52586 -1.11294,-6.6994 -1.23767,-7.05232 -0.50028,-1.41546 -2.29508,4.33918 -2.29508,7.35869 0,1.77595 -0.24601,3.229 -0.54668,3.229 -0.86735,0 -4.51135,-8.41076 -5.18657,-11.97116 -0.33757,-1.78004 -0.46579,-3.80235 -0.28491,-4.49401 0.28965,-1.10765 -0.0397,-1.27447 -2.76202,-1.39933 -5.34324,-0.24507 -10.59653,-1.42101 -16.47009,-3.68682 -3.1235,-1.20493 -5.80465,-2.19078 -5.95811,-2.19078 -0.15346,0 0.0199,0.55853 0.38524,1.24117 1.15137,2.15136 0.73147,3.95358 -1.4212,6.09976 -2.68929,2.68118 -7.66128,4.50159 -15.0305,5.50314 -6.42613,0.87339 -19.74742,0.60015 -20.77367,-0.4261 -0.42438,-0.42438 0.64152,-1.29961 3.17233,-2.60485 2.09631,-1.08115 6.65051,-4.12944 10.12046,-6.774 7.14578,-5.446 11.12258,-7.23017 14.96644,-6.7146 1.41457,0.18974 2.57193,0.25395 2.57193,0.14271 0,-0.11124 -1.85132,-1.37147 -4.11404,-2.80051 -2.26272,-1.42903 -5.69725,-3.88779 -7.63229,-5.4639 -3.05807,-2.49083 -3.84187,-2.83401 -5.9924,-2.6237 -4.31015,0.42152 -32.3392,0.34457 -35.67497,-0.0979 -2.93448,-0.38926 -3.16963,-0.32386 -2.84309,0.79086 1.60518,5.47973 0.6876,12.67794 -2.44523,19.18223 -2.55218,5.29876 -5.69036,9.12681 -10.20687,12.45064 -3.46218,2.54793 -9.11369,5.02992 -9.82759,4.31602 -0.2327,-0.23269 0.4694,-1.35722 1.56023,-2.49893 2.53225,-2.65038 4.0249,-6.2932 4.0249,-9.82276 0,-9.08435 4.23367,-17.00576 12.7273,-23.81343 l 1.49793,-1.2006 -8.23556,-1.78558 c -4.52955,-0.98208 -10.62486,-2.60252 -13.54514,-3.60097 l -5.3096,-1.81538 0.37916,2.02112 c 0.48965,2.61007 -0.56404,5.33529 -3.06565,7.9289 -3.19387,3.31131 -6.31921,3.96851 -20.06159,4.21857 -6.70554,0.12202 -12.73081,0.46089 -13.38948,0.75306 -3.18062,1.41081 3.18543,-5.71032 8.83756,-9.8858 4.10589,-3.03319 12.91187,-7.5878 15.77921,-8.16126 1.05992,-0.21199 1.92126,-0.5659 1.9141,-0.78648 -0.007,-0.22057 -2.53513,-1.72954 -5.61769,-3.35325 l -5.60468,-2.95222 -3.20539,1.09166 c -8.00149,2.72506 -15.05012,6.82398 -22.96021,13.35181 -12.50475,10.31959 -18.55362,21.26798 -19.4692,35.239 -0.80078,12.21928 2.52824,19.74002 11.50858,25.99961 6.54315,4.56077 10.16527,5.84457 16.56573,5.87137 5.11945,0.021 5.89663,-0.1561 10.37697,-2.37037 5.75124,-2.84241 9.71439,-6.91315 12.76668,-13.11323 2.88573,-5.86174 3.19788,-10.915 0.94846,-15.35402 -2.38883,-4.71413 -5.91832,-7.60317 -10.69652,-8.75555 -1.56443,-0.3773 -1.60294,-0.30137 -1.55384,3.06325 0.0442,3.02505 0.29057,3.65227 2.00007,5.09071 4.97381,4.18518 6.40915,13.96951 3.02928,20.64971 -2.70094,5.33831 -3.47551,5.64767 -3.47551,1.38808 0,-3.33694 -0.13265,-3.62971 -2.40629,-5.31068 -1.32346,-0.97847 -3.2897,-2.60418 -4.36942,-3.61269 l -1.96312,-1.83367 -1.06215,2.22736 c -1.06898,2.24168 -9.80988,11.90419 -10.76877,11.90419 -0.70298,0 -2.39687,-6.01396 -2.89867,-10.2914 -0.36104,-3.07755 0.1472,-6.60643 1.43471,-9.96161 0.25628,-0.66785 -0.14603,-0.92238 -1.45786,-0.92238 -4.07598,0 -10.97777,-3.55728 -14.64045,-7.54589 l -2.20401,-2.40013 5.56983,-0.41407 c 5.35946,-0.39844 8.23362,-1.19247 14.0462,-3.88045 1.4857,-0.68705 3.25929,-1.15687 3.94132,-1.04404 0.68203,0.11282 1.87831,-0.37238 2.65842,-1.07822 1.17548,-1.0636 2.5173,-1.32148 7.83589,-1.50599 6.13137,-0.2127 6.59339,-0.13322 10.36145,1.78252 5.08211,2.58385 8.74637,6.00625 10.7159,10.0086 1.28119,2.60358 1.5572,4.09651 1.50119,8.11987 -0.0593,4.2583 -0.38581,5.59762 -2.39718,9.83301 -4.18298,8.80816 -11.58817,15.56479 -19.62814,17.90909 -4.60285,1.3421 -12.31426,1.2374 -16.41425,-0.2229 z m 365.2584,-21.28944 c -0.1694,-6.18689 -1.4267,-9.05908 -4.8379,-11.0513 -2.0396,-1.1912 -2.1216,-1.19179 -3.4115,-0.0244 -2.5767,2.33187 -0.3692,9.04003 5.0197,15.25396 3.0326,3.49693 3.4259,2.98817 3.2297,-4.17824 z m -355.22709,-2.38964 c 0.66306,-1.52918 1.20556,-4.05029 1.20556,-5.60245 0,-2.47731 -0.19658,-2.87148 -1.60887,-3.22593 -2.05479,-0.51573 -4.43761,1.01034 -5.85387,3.74908 -1.1994,2.31938 -1.92809,9.67858 -1.2327,12.44925 l 0.45312,1.80536 2.91561,-3.19749 c 1.60358,-1.75862 3.4581,-4.44863 4.12115,-5.97782 z m 14.28346,1.23662 c -0.15168,-1.2685 -0.99953,-3.79719 -1.88413,-5.61932 -1.66542,-3.43056 -3.994,-4.96043 -6.53767,-4.29524 -1.0486,0.27421 -1.15344,0.72926 -0.80098,3.47667 0.43836,3.41698 1.76251,5.25758 6.0449,8.40256 2.88257,2.11696 3.61202,1.66598 3.17788,-1.96467 z m 322.93353,1.20918 c 1.8797,-1.41922 3.855,-3.42617 4.3896,-4.45988 1.3302,-2.57232 1.2774,-6.35799 -0.096,-6.885 -1.6865,-0.64716 -5.4514,1.82171 -6.8082,4.4646 -1.1822,2.30265 -2.1773,9.46069 -1.3152,9.46069 0.2265,0 1.9499,-1.16118 3.8297,-2.58041 z M 493.27342,496.8359 c 1.0224,-1.03754 1.8587,-2.33694 1.8584,-2.88755 -6e-4,-1.09109 -2.0592,-6.80399 -2.673,-7.41777 -0.2088,-0.20883 -1.714,0.26857 -3.34482,1.06089 -2.71749,1.32025 -2.96514,1.63534 -2.96514,3.7724 0,1.28251 0.32732,3.96169 0.72738,5.95374 l 0.72738,3.6219 1.9055,-1.10859 c 1.048,-0.60972 2.7419,-1.95748 3.7643,-2.99502 z m 12.6292,-6.11545 c -0.2813,-4.73968 -1.3528,-7.83531 -3.4319,-9.91435 -0.95,-0.95001 -1.188,-0.90316 -2.9517,0.58088 -1.0551,0.88782 -2.3294,1.61423 -2.8317,1.61423 -1.1798,0 -1.1579,1.71204 0.066,5.18132 1.155,3.27368 2.1966,4.54029 6.079,7.39198 3.415,2.50832 3.4992,2.37507 3.0702,-4.85406 z m -191.47796,4.26942 c 1.76778,-1.41457 1.81343,-1.58087 1.0292,-3.74962 l -0.82062,-2.2694 -3.27508,1.27183 c -1.80129,0.69951 -5.15199,1.76019 -7.44599,2.35708 l -4.17091,1.08525 3.52923,1.36229 c 4.81618,1.85905 8.78467,1.83861 11.15417,-0.0574 z m 367.50076,0.79201 c 3.8358,-1.22144 5.1823,-2.0456 4.2789,-2.61897 -0.4479,-0.28428 -1.3437,-0.5213 -1.9908,-0.5267 -0.647,-0.005 -3.3586,-0.88361 -6.0257,-1.95158 -2.6671,-1.06796 -4.8809,-1.86204 -4.9195,-1.76461 -0.039,0.0974 -0.5616,1.11467 -1.1621,2.26054 l -1.0919,2.0834 2.3638,1.60625 c 2.5529,1.73476 5.107,2.00719 8.5473,0.91167 z M 486.79053,484.75251 c 3.57549,-1.64381 3.97739,-1.9897 2.81539,-2.4228 -0.74556,-0.27787 -2.04496,-1.37447 -2.88757,-2.43687 l -1.53201,-1.93165 -2.88496,1.39708 c -3.52843,1.70868 -4.47262,3.47753 -4.48489,8.40206 l -0.009,3.79659 2.4063,-2.44342 c 1.32346,-1.34388 4.2832,-3.30633 6.5772,-4.36099 z m 28.60029,3.17386 c 0.1794,-0.46747 -0.2588,-2.21445 -0.9736,-3.8822 l -1.2998,-3.03226 -3.2174,0.1468 c -3.0135,0.13751 -3.963,0.66431 -2.6547,1.47288 0.3095,0.1913 0.8912,1.65211 1.2926,3.24626 l 0.7298,2.89847 2.8985,0 c 1.8138,0 3.0205,-0.31806 3.2246,-0.84995 z m -35.83883,-12.71333 c -0.49387,-0.27638 -1.58329,-1.05747 -2.42093,-1.73575 -1.34393,-1.08825 -1.75205,-1.13522 -3.47147,-0.39955 -1.07168,0.45853 -2.88695,1.18138 -4.03395,1.60635 -1.147,0.42497 -2.08546,1.01171 -2.08546,1.30385 0,0.7997 3.92055,3.56109 5.99922,4.22548 1.63072,0.52122 2.10295,0.30974 4.36943,-1.95674 1.95654,-1.95653 2.33454,-2.65672 1.64316,-3.04364 z m 45.92933,3.6299 c 5.1303,-1.74395 8.8924,-3.48094 13.606,-6.28192 4.7516,-2.82355 11.3985,-7.57158 11.0657,-7.90442 -0.5372,-0.5372 -10.5657,1.2944 -16.6263,3.03664 -6.8117,1.95814 -6.8532,1.9822 -8.7862,5.09167 -1.2221,1.96605 -3.1462,3.86512 -5.1902,5.12282 -1.7865,1.09924 -3.1079,2.22554 -2.9365,2.50291 0.3794,0.61394 4.693,-0.14866 8.8675,-1.5677 z m -60.26642,-0.4939 c -2.086,-2.24779 -4.0915,-5.24021 -4.0915,-6.10494 0,-0.29447 1.08283,-0.43527 2.40629,-0.31288 1.75038,0.16185 2.13787,0.0517 1.42156,-0.40424 -2.16412,-1.37738 -14.72041,-5.11297 -19.54898,-5.81597 -8.6015,-1.2523 -8.10606,-1.23165 -7.33771,-0.30584 1.53989,1.85545 12.12834,8.57381 16.64205,10.55935 3.94583,1.73575 10.94513,4.28936 12.15735,4.43547 0.15746,0.019 -0.58461,-0.90395 -1.64906,-2.05095 z m 49.00802,-1.76701 c 2.012,-0.70716 4.2043,-1.83186 4.8717,-2.49932 1.1903,-1.1903 1.1414,-1.23521 -2.5513,-2.34256 -4.7956,-1.43812 -10.3216,-1.87828 -12.5879,-1.00269 -1.5112,0.58388 -1.7646,1.04492 -1.7646,3.2109 0,2.17501 0.2471,2.61936 1.7646,3.17361 2.8164,1.02863 6.3304,0.84383 10.2675,-0.53994 z m -28.71574,-4.01956 c 0,-0.44746 0.71207,-1.86147 1.58238,-3.14224 l 1.58237,-2.32867 -1.88434,-2.60126 c -1.55555,-2.14736 -2.60361,-2.82342 -6.00651,-3.87446 -4.98961,-1.54113 -8.74915,-2.28635 -8.74915,-1.73425 0,0.22385 1.36488,2.75603 3.03307,5.62707 1.89681,3.26452 3.97617,5.90325 5.55054,7.04372 2.64805,1.91824 4.89164,2.38153 4.89164,1.01009 z m 16.37244,-6.37463 c 1.9287,-2.91448 2.8196,-9.07219 1.9687,-13.6078 l -0.4318,-2.30159 -4.6979,4.00907 c -4.9534,4.2271 -7.4363,7.64505 -7.4363,10.23675 0,1.39534 0.2718,1.55961 2.559,1.54625 1.6582,-0.01 3.183,0.47041 4.3314,1.36376 0.9747,0.75829 1.806,1.39475 1.8474,1.41435 0.041,0.0196 0.8781,-1.17775 1.8595,-2.66079 z m 10.842,-1.84476 c 1.9025,-2.26093 2.4856,-4.08333 2.1896,-6.84337 l -0.2077,-1.93697 -3.5292,1.06839 -3.5292,1.0684 -0.4143,3.18608 c -0.2278,1.75235 -0.6197,3.69141 -0.8708,4.30902 -0.3898,0.95889 -0.08,1.12294 2.1219,1.12294 2.0914,0 2.8921,-0.37288 4.2397,-1.97449 z m -23.0181,-5.77476 c 1.0203,-1.97312 1.0193,-1.97579 -1.92732,-5.12595 l -2.94815,-3.15182 -0.62295,1.6385 c -0.89531,2.35484 -0.78628,6.04379 0.17914,6.06097 0.44115,0.008 1.52399,0.57894 2.40629,1.26909 0.88231,0.69015 1.66897,1.26123 1.74814,1.26908 0.0792,0.008 0.60333,-0.87409 1.16485,-1.95987 z m -68.36419,0.62207 c 0,-0.76422 -6.62451,-5.06575 -12.19189,-7.91663 -2.64692,-1.3554 -5.10134,-2.6735 -5.45427,-2.92912 -1.71213,-1.24003 -14.1946,-5.08267 -19.89203,-6.12362 -8.85743,-1.61828 -25.50328,-1.65147 -33.04644,-0.0659 -8.62986,1.81403 -8.41936,1.64258 -4.46194,3.63415 14.28724,7.19005 36.49665,12.77816 54.19202,13.63525 7.97241,0.38615 20.85455,0.24152 20.85455,-0.23415 z m 176.78239,-0.95004 c 9.8542,-1.21913 17.3926,-2.95375 26.6039,-6.12169 8.9014,-3.06137 19.2761,-7.54456 19.2761,-8.3297 0,-0.3145 -0.1402,-0.57181 -0.3117,-0.57181 -0.1714,0 -4.1418,-0.61432 -8.823,-1.36514 -7.0977,-1.13839 -10.0569,-1.29905 -17.8158,-0.96725 -17.0217,0.72793 -29.0014,4.35837 -44.2758,13.41789 -2.9998,1.77926 -5.8609,3.55015 -6.3579,3.93532 -0.6692,0.51865 1.5777,0.78352 8.6627,1.02114 10.8729,0.36466 12.4077,0.2968 23.0415,-1.01876 z M 305.3201,441.67119 c 1.2208,-2.94785 1.51482,-10.06506 0.49453,-11.97148 -0.48443,-0.90517 -1.34967,-1.24117 -3.19616,-1.24117 -2.21698,0 -2.59212,0.21949 -3.01587,1.76462 -0.84592,3.08445 -0.38896,8.17052 1.02032,11.35643 0.75032,1.69623 1.37936,3.69704 1.39787,4.44626 0.0327,1.32049 0.067,1.31487 1.12294,-0.18375 0.5991,-0.85028 1.57847,-2.72719 2.17637,-4.17091 z m 381.51952,0.74386 c 1.3857,-3.86411 1.887,-9.9738 1.0684,-13.0209 -0.2909,-1.08278 -0.7628,-1.26686 -2.7184,-1.06029 -3.2868,0.34722 -3.9705,1.52827 -3.9705,6.85896 0,3.62402 0.3422,5.25066 1.6616,7.89834 0.9138,1.83391 1.8549,3.33438 2.0912,3.33438 0.2362,0 1.0767,-1.80472 1.8677,-4.01049 z m -394.21084,-2.22521 c 2.36407,-1.65756 2.64003,-2.13694 2.81776,-4.89478 l 0.19702,-3.05726 -1.80122,0.92204 c -0.99067,0.50713 -3.00581,1.12213 -4.47809,1.36668 -2.87563,0.47764 -3.19131,0.89962 -4.03756,5.39708 l -0.52731,2.80239 2.60434,-0.34931 c 1.43238,-0.19212 3.78366,-1.1762 5.22506,-2.18684 z m 409.52424,-1.61161 -0.7452,-3.35555 -3.8502,-1.00672 c -2.1176,-0.55369 -4.1755,-1.20775 -4.573,-1.45345 -0.478,-0.29542 -0.8061,0.42559 -0.9684,2.12845 -0.2099,2.20017 0.037,2.84231 1.6975,4.4094 2.3515,2.21963 3.1043,2.51755 6.5263,2.58277 l 2.6581,0.0507 -0.7451,-3.35555 z m -384.25484,-0.56644 0.18991,-2.85916 -3.67514,-0.77087 c -2.02132,-0.42398 -3.73858,-0.70293 -3.81612,-0.61991 -0.0776,0.083 -0.24173,1.27785 -0.36486,2.65517 -0.22197,2.48306 -0.19677,2.51376 2.98454,3.63715 1.76462,0.62312 3.49715,1.06181 3.85007,0.97486 0.35292,-0.0869 0.72714,-1.4447 0.8316,-3.01724 z m 356.04184,2.15738 3.4197,-1.12293 0,-2.9372 0,-2.93719 -3.8119,0.93125 c -2.0966,0.51219 -3.9299,1.25641 -4.0741,1.65383 -0.3432,0.94584 0.2221,5.53518 0.6818,5.53518 0.1955,0 1.8944,-0.50532 3.7752,-1.12294 z m -348.49246,-9.20728 c 0.69468,-1.12402 -3.06465,-5.89995 -5.86109,-7.44605 -3.20685,-1.77302 -7.97416,-2.64362 -7.97416,-1.45624 0,0.45294 -0.72129,1.76921 -1.60288,2.92503 -1.45912,1.91301 -1.51219,2.1922 -0.59165,3.11275 0.55619,0.55618 1.57968,1.31546 2.27444,1.68728 3.03845,1.62613 12.95347,2.47469 13.75534,1.17723 z m 349.33126,-0.98849 c 1.2223,-0.50717 2.7141,-1.36709 3.315,-1.91094 1.024,-0.92672 0.9953,-1.1323 -0.4577,-3.27347 -0.8528,-1.25655 -1.5504,-2.5331 -1.5504,-2.83678 0,-0.98071 -3.4505,-0.55959 -6.4168,0.78315 -3.2771,1.48341 -6.1104,3.95485 -7.4304,6.48146 -0.8404,1.60851 -0.8053,1.73913 0.5385,2.00176 2.4362,0.47613 9.6595,-0.27328 12.0018,-1.24518 z m -383.7905,0.43607 c 1.18092,-0.33869 3.11581,-1.35464 4.29975,-2.25768 l 2.15263,-1.64188 -1.57685,-2.32362 c -0.86727,-1.27799 -1.57685,-3.15866 -1.57685,-4.17925 0,-1.12355 -0.41279,-2.01403 -1.0463,-2.25713 -1.57927,-0.60603 -5.27968,1.68358 -7.87232,4.87095 -1.27092,1.56246 -3.26303,3.92636 -4.42693,5.25312 -2.09451,2.38761 -2.10108,2.41517 -0.64167,2.6944 2.81584,0.53874 8.55339,0.45344 10.68854,-0.15891 z m 415.3685,0.21175 2.3581,-0.38992 -3.584,-4.25519 c -5.867,-6.96581 -7.6538,-8.4261 -10.3099,-8.4261 -0.9603,0 -1.318,0.57388 -1.5813,2.53666 -0.1871,1.39517 -0.9479,3.39006 -1.6906,4.43309 l -1.3504,1.89642 1.9764,1.66305 c 1.0871,0.91467 2.7483,1.83259 3.6916,2.03982 0.9434,0.20723 2.0039,0.47311 2.3569,0.59084 1.104,0.36829 5.6706,0.31851 8.1332,-0.0887 z M 324.77508,418.44287 c 2.04752,-2.20932 4.21484,-5.92244 3.64906,-6.25172 -0.24696,-0.14373 -2.94668,-0.46407 -5.99938,-0.71187 l -5.55035,-0.45054 -1.26758,3.39801 -1.26757,3.39802 2.96785,1.0602 c 4.304,1.5375 5.71051,1.45424 7.46797,-0.4421 z m 345.92484,0.1057 2.6353,-0.69162 -1.3055,-3.43571 -1.3055,-3.43571 -5.8215,0.45298 c -3.2018,0.24914 -5.9378,0.56707 -6.0799,0.70651 -0.1421,0.13944 0.5901,1.62574 1.627,3.3029 2.0716,3.35083 4.3534,4.87037 6.3315,4.21649 0.7059,-0.23332 2.4692,-0.73545 3.9186,-1.11584 z m -383.87457,-2.08659 1.44242,-1.08802 -1.32172,-2.43591 c -1.10186,-2.03074 -1.66166,-2.4368 -3.3654,-2.44121 -1.12402,-0.003 -2.83493,0.29554 -3.802,0.66322 l -1.75833,0.66851 3.16033,2.83196 c 1.73818,1.55758 3.39476,2.84491 3.6813,2.86072 0.28654,0.0158 1.17007,-0.46085 1.9634,-1.05927 z m 418.65107,-1.31827 c 1.6743,-1.32346 3.1818,-2.66928 3.3499,-2.99072 0.3081,-0.5888 -3.3211,-2.16364 -5.1949,-2.25431 -0.5549,-0.0268 -1.7821,1.13211 -2.7271,2.57547 l -1.7182,2.62429 1.4438,1.20443 c 0.794,0.66244 1.5244,1.21405 1.623,1.22579 0.099,0.0117 1.5492,-1.06148 3.2235,-2.38495 z M 312.8495,412.23449 c 0.738,-2.21769 2.19509,-5.06734 3.238,-6.33255 1.04289,-1.26522 1.71389,-2.48268 1.4911,-2.70547 -0.86257,-0.86256 -5.10309,-0.33971 -7.09509,0.87482 -2.22846,1.35871 -4.63994,4.75346 -4.6439,6.53743 -10e-4,0.59384 0.56761,1.26061 1.26428,1.48173 0.69668,0.22112 1.87136,1.25122 2.61041,2.28911 0.73905,1.0379 1.4449,1.88709 1.56855,1.88709 0.12366,0 0.82865,-1.81447 1.56665,-4.03216 z m 368.45742,-2.69647 c -0.7128,-4.28378 -4.1505,-6.74662 -9.4173,-6.74662 l -3.6772,0 1.712,1.34666 c 1.7769,1.39765 4.1436,5.58859 5.4694,9.68488 l 0.7667,2.36888 2.6807,-2.68073 c 1.747,-1.74702 2.6058,-3.13085 2.4657,-3.97307 z m 16.7066,1.07952 c 0.6709,-1.05969 1.7679,-3.90377 2.4378,-6.3202 0.6698,-2.41642 1.4274,-4.93923 1.6836,-5.60624 0.3634,-0.94607 -0.7915,-0.53639 -5.252,1.863 -6.6918,3.59969 -8.2923,4.91243 -9.9642,8.17283 -1.2212,2.38133 -1.2209,2.40629 0.022,2.40629 0.6908,0 2.0653,0.82115 3.0545,1.82478 l 1.7984,1.82477 2.4999,-1.11926 c 1.375,-0.6156 3.0489,-1.98628 3.7199,-3.04597 z m -399.70228,1.98615 c 1.49236,-0.95586 2.84509,-1.83352 3.00607,-1.95037 0.86389,-0.62701 -2.54374,-4.95666 -5.37066,-6.82386 -3.55092,-2.34538 -10.01784,-5.73957 -10.31248,-5.41253 -0.2406,0.26705 3.19211,11.6676 3.81809,12.68045 0.62901,1.01778 4.28042,3.23875 5.32975,3.24184 0.44872,10e-4 2.03688,-0.77967 3.52923,-1.73553 z m 8.01274,-9.93095 c 1.96091,-2.11366 1.64737,-4.00112 -1.20419,-7.24887 -2.21919,-2.52751 -3.13265,-2.83539 -3.13265,-1.05586 0,0.66099 -0.59199,2.54008 -1.31553,4.17576 l -1.31552,2.97396 2.11559,2.51991 c 1.81788,2.1653 2.1957,2.36779 2.68477,1.43894 0.31305,-0.59454 1.28844,-1.85627 2.16753,-2.80384 z m 380.38204,-5.27707 c -0.7209,-2.14973 -1.4072,-4.052 -1.5251,-4.22727 -0.4034,-0.59975 -4.5627,4.42449 -4.9543,5.98457 -0.2899,1.15508 0.161,2.28922 1.7446,4.38798 l 2.1354,2.83029 1.9551,-2.53348 1.955,-2.53349 -1.3107,-3.9086 z M 395.99303,518.9352 c -0.21812,-0.35292 -0.10782,-0.64168 0.2451,-0.64168 0.35293,0 0.82014,0.28876 1.03826,0.64168 0.21812,0.35293 0.10782,0.64168 -0.2451,0.64168 -0.35293,0 -0.82014,-0.28875 -1.03826,-0.64168 z m 17.37961,-72.99416 c -5.52317,-4.20801 -5.8294,-5.33526 -5.8294,-21.45833 l 0,-13.92185 1.7722,1.69685 c 4.37712,4.19104 11.56671,16.51805 13.57169,23.26955 1.59987,5.38736 1.35981,8.4726 -0.84273,10.83041 -2.53249,2.71104 -4.7035,2.60674 -8.67176,-0.41663 z m 154.49678,1.96546 c -2.1336,-0.41734 -3.5569,-2.44031 -3.9079,-5.55416 -0.7217,-6.40254 6.2738,-21.29009 14.1048,-30.01732 l 2.0884,-2.32744 -0.062,13.87765 c -0.067,15.12995 -0.3439,16.5806 -3.8724,20.32049 -2.1916,2.32299 -5.0043,4.17882 -6.1495,4.05747 -0.4536,-0.0481 -1.4442,-0.20857 -2.2014,-0.35669 z"
       id="path3030" />
    <g
       id="g2848"
       transform="translate(-32.105237,129.94507)">
      <path
         style="fill:#000000"
         d="m 402.79673,256.66696 c -6.63255,-3.60385 -8.43448,-5.70476 -6.95131,-8.1046 0.60635,-0.98107 3.724,-0.0261 7.89534,2.41848 8.99856,5.27352 18.27412,4.66572 25.38903,0.083 7.70336,-4.96174 9.41483,-10.53723 11.28654,-25.0651 0.57888,-19.83845 -15.36706,-37.26258 -42.71095,-46.67026 -11.61301,-3.99546 -42.8378,-10.4404 -44.1628,-9.11539 -0.55018,0.55017 0.91385,2.99827 3.25339,5.44023 4.12698,4.30765 9.21595,15.91319 9.21595,21.01727 0,5.11382 -6.90219,16.58097 -11.37134,18.89204 -2.52546,1.30596 -7.816,2.3745 -11.75678,2.3745 -9.60934,0 -17.17994,-6.62876 -17.17994,-15.04262 0,-5.87549 3.34383,-10.75454 7.3706,-10.75454 3.02214,0 2.95244,3.90341 -0.11512,6.44929 -1.33018,1.10394 -2.41848,3.64335 -2.41848,5.64313 0,11.44597 22.02696,11.16947 27.27208,-0.34235 4.08621,-8.96822 -0.0353,-22.04967 -9.44069,-29.96372 -4.31185,-3.62818 -20.39089,-10.80816 -24.20408,-10.80816 -4.44943,0 -33.9196,-13.72333 -40.95112,-19.06963 -9.46312,-7.19512 -20.35436,-23.53503 -17.55381,-26.33558 2.49133,-2.49133 4.30787,-0.81355 9.95743,9.19696 9.19047,16.28462 29.29471,25.18433 57.33867,25.38258 32.80577,0.23192 54.58336,-11.88863 56.80698,-31.61656 1.40806,-12.49234 -7.50699,-23.662946 -18.88497,-23.662946 -10.1181,0 -14.93881,9.122616 -8.09404,15.317066 4.02352,3.64124 4.11217,5.64313 0.24988,5.64313 -6.66608,0 -10.82455,-9.23408 -7.61634,-16.91243 4.42339,-10.586637 15.30041,-12.656488 27.78891,-5.288077 10.3837,6.126517 14.92671,22.939837 9.6262,35.625737 -5.55795,13.30208 -25.64369,24.22769 -48.45674,26.358 -13.36174,1.24775 -11.38694,2.50646 9.54032,6.08085 24.5346,4.19054 44.77049,9.8945 58.01543,16.35303 33.23954,16.2083 40.17018,49.63876 25.30946,71.46556 -2.42941,3.56821 -4.8088,4.47072 -7.71572,5.89318 -3.05919,1.49697 -4.42192,2.3345 -9.87955,2.60589 -7.91824,0.39375 -12.27078,-0.99855 -16.8524,-3.488 l -3e-5,4e-5 z"
         id="path2237"
         sodipodi:nodetypes="cssacssssssssssssssssssssssssssssascc" />
    </g>
    <g
       id="layer1-2"
       inkscape:label="Layer 1"
       transform="matrix(0.26188813,0,0,0.26188813,173.14542,-12.140911)">
      <path
         id="path3103"
         d="m 350.59375,267.09375 c -105.58551,0.086 -206.54428,43.43683 -276.71875,123.0625 -17.683667,20.0652 -52.07136,68.7791 -76.34375,108.25 -64.66188,105.15077 -106.40245,144.30248 -167.9375,157.5625 -65.27891,14.06602 -141.74108,-40.86205 -141.6875,-101.71875 0.0356,-40.49063 22.54146,-77.2888 55.65625,-91.125 22.33628,-9.3329 29.07935,-9.41421 50.9375,-0.28125 25.0956,10.48557 39.43802,34.13532 30,49.40625 -3.20503,5.18586 -10.06498,2.6135 -19.3125,-7.3125 -25.98736,-27.8942 -58.15625,-15.35633 -58.15625,22.6875 0,24.72631 23.89819,43.375 55.5625,43.375 51.99317,-3.1e-4 84.69256,-59.04263 58.15625,-105 -19.76523,-34.23147 -56.93211,-52.08475 -100.46875,-48.34375 -99.3472,8.53677 -150.73864,135.32533 -90.0625,222.0625 13.08463,18.7046 38.02368,40.06577 62.28125,53.375 34.84125,19.11592 48.13375,22.22382 95.9375,22.1875 44.88375,-0.0341 63.8847,-3.89251 98.75,-20.1875 C -14.344928,667.76776 63.586637,590.91933 120.59375,504.375 177.13616,418.53636 219.44006,378.4143 277,356.125 c 102.85939,-39.83112 205.761,-13.26913 294.75,75.96875 124.49401,124.84222 135.64065,285.08604 22.78125,328.1875 -31.22879,11.92645 -35.00471,11.87425 -66.34375,-0.0937 -44.52536,-17.00471 -66.7188,-48.79243 -66.71875,-95.46875 -10e-6,-31.04816 3.14067,-38.53177 24.125,-57.28125 27.64034,-24.6968 46.86115,-27.23872 65.5625,-8.65625 12.43622,12.35718 11.96305,12.98157 -10.46875,15.1875 -31.76285,3.12358 -47.05416,25.45875 -37.09375,54.03125 21.2779,61.03791 111.1146,15.57626 98.8125,-50 -15.5735,-83.01372 -117.06891,-93.06496 -152.46875,-15.09375 -63.45352,139.76033 97.28875,259.75423 212.46875,158.625 38.09751,-33.45011 49.8122,-61.0942 49.5,-116.53125 -0.3073,-54.5763 -17.6738,-106.61561 -58.0625,-173.6875 -14.31712,-23.77607 -24.49545,-44.72361 -22.59375,-46.625 10.76422,-10.76428 185.0574,118.77855 232.8125,173.03125 46.98231,53.37472 64.31415,121.79695 41.84375,165.25 -12.39091,23.96122 -24.56285,30.09375 -59.53125,30.09375 -29.73352,-10e-6 -48.0625,-16.20323 -48.0625,-42.59375 l 0,-19.40625 15.09375,16.21875 c 19.31509,20.73213 40.1818,20.60684 54.8125,-0.28125 15.88088,-22.67321 14.43065,-54.66308 -3.28125,-72.375 -18.69273,-18.69289 -34.38485,-18.65001 -65.28125,0.1875 -59.88239,36.50883 -54.44325,119.72528 9.71875,148.90625 36.95312,16.80627 44.60165,16.73672 82.28125,-0.375 23.13323,-10.50556 34.4461,-22.17182 47.3125,-48.75 15.05817,-31.1061 16.34925,-41.73152 12.09375,-97.0938 -2.6278,-34.18656 -3.9167,-62.0959 -2.875,-62.09375 1.04157,0.002 19.2091,6.5804 40.375,14.625 83.046,31.56406 141.9307,40.78501 261.2813,40.84375 93.707,0.0462 122.816,-2.57581 158.625,-14.3125 94.7766,-31.06388 145.0923,-97.65295 144.875,-191.90625 -0.1571,-68.11809 -19.183,-104.91499 -66.3438,-128.71875 -35.9435,-18.14196 -88.9361,-21.957 -123.7188,-8.84375 -31.9592,12.04924 -68.3802,51.39968 -76.9062,83.0625 -14.8291,55.07099 20.4734,109.03125 71.3438,109.03125 32.4093,10e-6 69.875,-31.27978 69.875,-58.28125 -1e-4,-27.24232 -19.5286,-52.75 -40.2813,-52.75 -24.3421,10e-6 -36.1055,17.18078 -30.1875,44.125 5.4814,24.957 -3.095,29.27981 -21.5312,10.84375 -37.6511,-37.651 21.5366,-106.78125 91.4374,-106.78125 43.0007,0 82,51.52083 82,108.4375 0,99.74559 -117.7911,173.00798 -277.4374,172.625 -63.5526,-0.1526 -165.6245,-17.61692 -214.875,-36.8125 L 994.53125,591.9375 1022.125,577.625 c 43.2922,-22.39117 62.1262,-73.11709 41.8125,-112.65625 -26.4863,-51.55395 -70.9921,-73.46945 -109.125,-53.75 -26.29628,13.59811 -33.78655,32.17559 -23.71875,58.65625 11.28212,29.67377 41.01425,33.52472 66.90625,8.71875 l 21.0312,-20.1875 8.5626,15.96875 c 22.5315,42.10043 -19.5334,78.70703 -81.2188,70.65625 -50.99329,-6.65537 -157.72655,-61.8484 -248.03125,-128.25 -109.6978,-80.66229 -159.52655,-109.27272 -228.03125,-131 -36.25576,-11.4992 -73.07619,-17.62917 -109.5,-18.5625 -3.41473,-0.0875 -6.81277,-0.12777 -10.21875,-0.125 z"
         style="fill:#000000" />
    </g>
    <path
       style="fill:#000000"
       d="m 131.79915,543.23309 c -10.07159,-1.47085 -16.07758,-6.75441 -18.7103,-16.45974 -2.68546,-9.89975 3.22154,-21.26758 13.58853,-26.15071 3.80939,-1.79432 4.55783,-1.92076 9.86711,-1.66692 4.69973,0.2247 6.42727,0.61985 9.49446,2.1717 4.25584,2.15326 6.26593,4.52987 6.26593,7.40849 0,2.59088 -1.52766,4.03225 -4.27363,4.03225 -2.68828,0 -3.87899,-1.75689 -3.29618,-4.86349 0.3411,-1.81825 0.16407,-2.2161 -1.27859,-2.87342 -2.26905,-1.03385 -9.01937,-0.96479 -11.60499,0.11871 -8.43407,3.53433 -11.41352,12.97929 -6.92676,21.95808 2.69655,5.39629 6.83579,8.18546 13.73644,9.25613 9.07567,1.40814 25.73242,-1.06307 40.76113,-6.04735 15.95838,-5.2926 23.53696,-10.15861 26.48132,-17.00295 4.26268,-9.90887 -3.08744,-22.77614 -13.01032,-22.77614 -3.79688,0 -9.26186,2.26482 -11.81084,4.8947 l -2.21231,2.28252 1.42868,1.52076 c 1.69252,1.80161 1.78677,2.9227 0.41085,4.88709 -1.33852,1.91101 -5.16673,2.0283 -6.15137,0.18847 -1.86205,-3.47928 0.0174,-9.23711 4.46792,-13.68761 9.9336,-9.9336 28.0639,-7.63713 35.74301,4.52737 3.81957,6.05057 4.47102,14.6526 1.56439,20.65688 -3.12202,6.44925 -13.13131,13.12415 -26.20799,17.47737 -12.88089,4.28804 -33.73816,9.07115 -44.49867,10.20472 -6.91904,0.72888 -8.49141,0.72241 -13.82782,-0.0569 z M 86.078801,502.70905 c -10.70361,-2.19142 -18.95107,-9.47079 -22.05815,-19.46894 -2.6989,-8.68469 -1.23491,-16.86599 4.05349,-22.65234 4.5543,-4.98312 8.3798,-6.52184 16.23177,-6.52882 7.10775,-0.007 9.69251,0.99211 14.83142,5.72899 5.296859,4.88248 7.127589,11.10484 3.891169,13.22543 -1.16067,0.76049 -1.96612,0.8536 -3.229429,0.37329 -2.57958,-0.98076 -3.32321,-2.89367 -2.06828,-5.32042 1.31659,-2.54602 0.82161,-3.19536 -4.44003,-5.82463 -3.01463,-1.50643 -4.83774,-1.97691 -7.61815,-1.96599 -13.57219,0.0534 -18.71151,14.40582 -9.31412,26.01141 8.31856,10.27326 26.404349,10.35948 41.729029,0.19894 9.86581,-6.54121 18.36231,-16.01747 35.53114,-39.62835 6.86708,-9.44374 18.50667,-21.58903 24.33939,-25.39687 5.28205,-3.44833 10.49614,-5.93407 16.19234,-7.71945 4.21473,-1.32103 6.19,-1.53034 14.05748,-1.4896 8.33192,0.0431 9.56134,0.20623 13.69419,1.81659 11.02893,4.29738 17.68797,13.30689 18.50765,25.0404 0.49944,7.14915 -1.03845,11.31274 -6.01237,16.27765 -4.62912,4.62073 -8.49087,6.18074 -15.31279,6.18583 -5.6687,0.004 -9.98645,-1.59191 -13.95938,-5.16032 -3.68788,-3.3124 -5.74409,-6.92097 -5.74409,-10.08068 0,-3.94618 3.85294,-5.75507 6.53837,-3.06965 1.59298,1.59299 1.66339,3.10007 0.21938,4.69568 -1.02165,1.12892 -0.99163,1.3075 0.49038,2.91654 3.56946,3.87544 11.82664,5.40863 17.14996,3.1844 5.15044,-2.15199 8.72899,-8.6622 7.87328,-14.32331 -1.76521,-11.67817 -13.00736,-19.64888 -26.00909,-18.44049 -16.90925,1.57155 -30.19998,11.49961 -47.15,35.22067 -17.04454,23.85334 -20.24474,27.6418 -29.39967,34.8039 -5.94669,4.65222 -12.3004,8.05261 -18.96125,10.14773 -5.23656,1.64712 -18.684259,2.34172 -24.053639,1.24241 z M 203.24482,475.67784 c -5.21648,-4.94525 -11.94805,-7.01548 -18.44694,-5.67316 -2.19857,0.45411 -4.804,1.24276 -5.78985,1.75256 -3.58252,1.8526 -9.42169,0.62754 -10.9917,-2.30605 -1.32039,-2.46718 -0.80811,-6.96779 1.04362,-9.16843 3.13306,-3.72344 6.35254,-4.93157 12.99447,-4.87629 7.34414,0.0611 11.94937,1.71291 16.71069,5.99375 5.0952,4.58104 9.12989,12.07261 8.15541,15.14293 -0.57934,1.82535 -0.92277,1.7445 -3.6757,-0.86531 z M 115.6226,454.61236 c -6.02691,-8.15834 -12.11075,-23.34864 -13.69747,-34.20028 -0.9546,-6.52856 -0.47318,-17.02828 1.03586,-22.59218 3.26157,-12.02553 11.48746,-22.20268 22.20968,-27.47806 15.1011,-7.4298 32.30735,-5.06483 43.32797,5.95533 11.602,11.60153 12.24969,29.12403 1.5734,42.56684 -5.34294,6.72743 -15.61528,10.47664 -24.28641,8.86408 -5.20261,-0.96753 -10.30578,-3.33652 -13.60169,-6.31417 -10.30338,-9.30848 -7.64717,-29.32351 4.69275,-35.36087 14.63547,-7.16047 29.18723,4.18684 24.18725,18.86096 -1.73178,5.08249 -6.05516,7.49841 -11.13131,6.22022 -5.07318,-1.27744 -7.37562,-5.90989 -5.20787,-10.47809 1.07643,-2.2684 3.97449,-4.47083 5.88295,-4.47083 1.6012,0 1.24021,-1.71173 -0.67944,-3.22173 -4.55027,-3.57924 -12.40891,0.10867 -14.64052,6.87051 -1.20758,3.65901 -0.53619,9.50786 1.43298,12.48348 5.50026,8.31145 19.53852,8.52053 26.68871,0.39749 3.56636,-4.05161 4.81229,-8.18562 4.46298,-14.80826 -0.49152,-9.31886 -5.11298,-16.30348 -13.33234,-20.14979 -12.09552,-5.66018 -24.838,-3.21687 -34.94662,6.70085 -5.11547,5.01887 -7.8582,10.19296 -9.40797,17.74787 -2.83003,13.79602 0.93952,34.7581 9.17188,51.00388 1.90346,3.7563 1.97587,5.09014 0.27632,5.09014 -0.80602,0 -2.30515,-1.37815 -4.01109,-3.68739 z m -27.066759,-9.34049 c -6.88202,-1.69784 -12.23321,-8.09635 -14.37751,-17.19146 -2.43505,-10.32826 0.28014,-20.91701 7.22093,-28.16035 5.0736,-5.29477 7.68013,-4.87745 5.72769,0.91703 -0.80887,2.40058 -1.16569,5.28986 -1.12121,9.07878 0.085,7.24386 1.52548,10.36875 7.81343,16.95027 5.92527,6.2019 7.151529,9.41366 5.14086,13.46467 -2.06167,4.15376 -6.00483,6.02641 -10.40419,4.94106 z"
       id="path3028" />
    <path
       style="fill:#000000"
       d="m 465.76044,401.00949 c 0,-0.7065 1.125,-8.1398 2.5,-16.5183 1.375,-8.3785 2.5,-15.9004 2.5,-16.7154 0,-2.3698 -1.7108,-1.7568 -7.1952,2.5784 -7.2387,5.7218 -10.4591,7.1707 -15.9383,7.1707 -6.2328,0 -10.5796,-2.5963 -14.2288,-8.4988 -2.3917,-3.8684 -2.8877,-5.7637 -2.8877,-11.0335 0,-9.852 3.8991,-15.6985 10.4697,-15.6985 7.4092,0 11.5642,8.5804 7.1836,14.8346 -3.3316,4.7565 -9.7938,1.0215 -7.8408,-4.5318 1.0959,-3.1162 3.7242,-3.7678 4.2471,-1.0528 0.2057,1.068 -0.2762,1.75 -1.2363,1.75 -2.011,0 -2.0589,2.8765 -0.061,3.6433 4.2424,1.6279 6.2344,-6.8962 2.4873,-10.6433 -2.4447,-2.4447 -4.3201,-2.5147 -8.0672,-0.3012 -5.0417,2.9782 -6.4198,11.4674 -3.0521,18.8012 2.4539,5.3439 5.1489,7.5602 9.9813,8.2084 10.8349,1.4532 15.8204,-3.836 23.1801,-24.5922 l 3.3274,-9.3839 -2.8247,-17.3929 c -2.387,-14.6978 -2.7687,-20.3297 -1.2371,-18.256 0.4527,0.613 18.846,22.21 20.1123,23.6153 0.8086,0.8976 3.8437,-2.0306 12.08,-11.6542 9.2284,-10.7829 11.0496,-12.4796 11.308,-10.5352 0.1695,1.2748 -0.843,8.9007 -2.25,16.9466 -1.4069,8.0458 -2.558,15.5097 -2.558,16.5865 0,2.3188 2.2414,2.5766 3.9981,0.4598 0.6837,-0.8238 3.9401,-3.2988 7.2364,-5.5 5.1844,-3.4619 6.7382,-4.0022 11.5114,-4.0022 3.8493,0 6.5392,0.6312 8.8949,2.0871 12.8266,7.9273 11.0162,31.9129 -2.4088,31.9129 -6.7116,0 -10.6426,-8.1133 -6.6753,-13.7774 3.9496,-5.6389 11.1963,-0.1217 7.5042,5.7131 -0.7529,1.1899 -1.1784,1.2117 -2.4847,0.1276 -1.9901,-1.6516 -2.0252,-3.0633 -0.076,-3.0633 0.825,0 1.5,-0.675 1.5,-1.5 0,-1.7943 -3.1112,-1.9888 -4.8,-0.3 -2.9912,2.9912 0.6092,10.8 4.9796,10.8 2.6318,0 6.6169,-3.8532 7.8503,-7.5906 3.092,-9.369 -3.1666,-20.1069 -12.3208,-21.1387 -9.2681,-1.0446 -13.6987,4.1817 -21.313,25.141 l -3.6008,9.9116 2.6173,16.5884 c 1.4396,9.1236 2.6106,16.9258 2.6024,17.3383 -0.044,2.1861 -2.7468,-0.3328 -11.5365,-10.75 -5.3367,-6.325 -10.2821,-11.5 -10.9896,-11.5 -0.7075,0 -5.6237,5.175 -10.9248,11.5 -9.2062,10.9845 -11.5641,13.0673 -11.5641,10.2154 z"
       id="path3022" />
    <path
       style="fill:#000000"
       d="m 483.38612,292.78354 c -5.9147,-5.2847 -3.1853,-13.1565 4.5616,-13.1565 5.4704,0 7.7849,4.8657 3.3393,7.02 -2.1834,1.0581 -2.1915,1.0436 -0.2721,-0.4917 2.4986,-1.9986 1.0373,-4.8815 -2.7031,-5.3325 -5.6933,-0.6866 -7.9314,6.9627 -3.14,10.7317 4.9835,3.9199 13.6482,2.3219 18.5819,-3.427 2.3858,-2.7801 2.2917,-10.1543 -0.1812,-14.2101 -2.0667,-3.3894 -5.9955,-5.7281 -17.4972,-10.4152 -8.6911,-3.5418 -10.8398,-3.5902 -13.0004,-0.2928 -3.2785,5.0037 -8.9435,10.5839 -12.6799,12.4901 -7.1811,3.6635 -20.9316,1.3956 -23.7774,-3.9217 -2.0149,-3.7649 -1.3099,-9.0338 1.5654,-11.6985 4.4653,-4.1383 14.354,-2.7786 14.354,1.9737 0,3.3265 -1.9817,5.5785 -4.7852,5.4379 -2.3606,-0.1184 -2.421,-0.1928 -0.4626,-0.5699 3.566,-0.6866 4.7062,-3.8355 2.2707,-6.271 -4.2817,-4.2817 -11.0229,-1.0682 -11.0229,5.2545 0,4.6809 2.2675,7.3007 7.4482,8.6052 7.8443,1.9752 15.6835,-0.8891 19.6701,-7.187 1.737,-2.744 1.946,-4.2992 1.4791,-11.0035 -0.8511,-12.2215 -1.4238,-12.9128 -11.8418,-14.2932 -15.6742,-2.077 -23.0284,-7.4076 -23.0284,-16.6919 0,-10.1985 14.2456,-16.2359 22.6713,-9.6082 4.7811,3.7608 2.6506,10.9478 -3.22,10.862 -2.6476,-0.039 -2.641,-0.055 0.5715,-1.4517 4.1422,-1.8004 4.4085,-5.4527 0.6151,-8.4366 -3.0794,-2.4223 -6.1322,-2.6146 -10.7666,-0.6782 -4.3006,1.7969 -6.5985,5.1421 -6.5985,9.6056 0,4.5511 2.1012,7.5009 7.1937,10.0989 8.374,4.2721 20.6286,3.1948 29.8458,-2.6238 5.8326,-3.6819 5.8813,-5.4991 0.3683,-13.7162 -5.9263,-8.833 -6.4861,-14.0147 -2.2121,-20.4764 6.3132,-9.5447 23.882,-9.5492 27.0627,-0.01 2.608,7.8237 -9.3279,14.3598 -13.6497,7.4745 -1.3665,-2.1769 0.2255,-5.1166 2.9984,-5.5368 1.7588,-0.2665 1.7689,-0.2099 0.1429,0.7997 -2.6641,1.654 -2.1954,4.8372 0.8237,5.595 4.2669,1.0709 7.4263,-1.0189 7.4263,-4.9121 0,-5.1091 -3.5392,-7.8991 -9.9572,-7.8494 -14.1906,0.11 -18.8841,13.3715 -8.2942,23.4354 3.0452,2.894 19.007,9.7182 22.7307,9.7182 1.4739,0 3.6296,-2.0356 6.9627,-6.5751 6.7128,-9.1423 11.212,-11.9484 18.9852,-11.8409 4.0586,0.056 7.417,0.7758 10.1257,2.1698 10.2847,5.2929 7.8075,18.2462 -3.4893,18.2462 -2.565,0 -5.2036,-0.54 -5.8636,-1.2 -1.3964,-1.3964 -1.6298,-6.8 -0.2937,-6.8 0.4986,0 0.6886,0.8329 0.4224,1.8509 -1.2901,4.9332 6.9892,6.9221 11.2167,2.6946 8.0277,-8.0277 -5.8627,-18.288 -17.8276,-13.1686 -6.6603,2.8497 -11.622,11.7164 -10.3282,18.4568 0.2815,1.4665 1.0158,5.2538 1.632,8.4163 l 1.1202,5.75 9.364,0 c 10.4273,0 13.6713,0.8757 17.8334,4.8136 3.811,3.6058 5.6608,7.3738 5.6608,11.531 0,10.8374 -19.0364,14.862 -21.5176,4.5492 -0.6242,-2.5941 1.4252,-5.8938 3.6604,-5.8938 0.55,0 0.2929,0.7072 -0.5714,1.5715 -3.7375,3.7374 -0.1116,8.4285 6.5147,8.4285 7.6707,0 11.7301,-9.15 6.8256,-15.3851 -3.19,-4.0554 -7.12,-5.6149 -14.1498,-5.6149 -5.8357,0 -7.0835,0.4272 -15.7653,5.3972 -5.1854,2.9684 -9.5991,5.9103 -9.8082,6.5376 -0.2091,0.6272 1.2485,3.5052 3.239,6.3954 5.6976,8.2727 6.356,12.1736 3.3684,19.9581 -1.6531,4.307 -8.3276,7.7117 -15.1179,7.7117 -4.7919,0 -6.128,-0.4303 -8.8288,-2.8435 z"
       id="path3020" />
    <path
       id="path2941"
       style="fill:#000000"
       d="m 648.90254,188.56061 c 0.0938,-6.83668 -0.9394,-11.9663 -2.05553,-10.20566 -1.00746,1.58921 -1.15996,14.92235 -0.19931,17.42576 0.62625,1.63198 0.72924,1.61986 1.42971,-0.16822 0.41517,-1.05978 0.78648,-4.23313 0.82513,-7.05188 z m -10.92971,-1.43402 c 0,-5.53246 -0.39069,-9.81756 -0.86819,-9.52244 -1.33319,0.82395 -2.30485,10.24473 -1.5653,15.1764 1.1568,7.71408 2.43349,4.74782 2.43349,-5.65396 z m 5.19844,22.20945 c 0.14652,-6.95039 -0.43031,-9.25191 -1.94034,-7.74188 -0.89368,0.89368 -0.66111,13.13043 0.27845,14.65067 1.15728,1.87252 1.50747,0.41671 1.66189,-6.90879 z m -0.0118,67.59959 c 0.44808,-4.64726 -0.25148,-11.75 -1.15728,-11.75 -1.02268,0 -1.86107,7.78659 -1.27115,11.80594 0.60766,4.14024 2.027,4.10755 2.42843,-0.0559 z m 5.72942,17.75 c 0.0688,-7.28989 -0.80383,-11.28385 -2.03948,-9.33453 -1.00928,1.59219 -1.16356,14.92311 -0.20171,17.42963 0.62625,1.63198 0.72924,1.61986 1.42971,-0.16821 0.41517,-1.05979 0.78033,-4.62689 0.81148,-7.92689 z m -10.91606,0.059 c 0,-10.12803 -1.34412,-13.41839 -2.45509,-6.00995 -0.78142,5.21089 0.2593,15.45093 1.57031,15.45093 0.48663,0 0.88478,-4.24844 0.88478,-9.44098 z m -3.34386,15.61352 c -0.9096,-1.00511 -2.16201,-4.35789 -2.78312,-7.45062 -1.15788,-5.76554 -0.59398,-11.95044 2.27936,-24.99994 1.15711,-5.25513 1.09563,-6.11485 -0.67936,-9.5 -1.07338,-2.04709 -4.68485,-6.49208 -8.0255,-9.87776 -6.54261,-6.63082 -12.62199,-9.34996 -20.87902,-9.33864 -16.35909,0.0224 -26.95407,12.95025 -20.96204,25.57753 2.50683,5.28275 6.87262,7.41689 15.17268,7.41689 6.61321,0 7.19865,-0.18489 9.59218,-3.02944 6.60798,-7.85314 2.82419,-17.17096 -6.41748,-15.80344 -5.36717,0.7942 -4.94828,7.63721 0.43126,7.04503 2.03094,-0.22357 2.6149,0.15129 2.6149,1.67857 0,4.07624 -5.44141,6.41207 -10.4552,4.4881 -2.53014,-0.97091 -4.75725,-6.13504 -4.04479,-9.37888 2.16191,-9.8431 17.33204,-11.79608 23.30255,-2.99994 1.9386,2.85607 2.29097,4.40848 1.91529,8.43797 -0.38021,4.07799 -1.07837,5.50431 -4.00877,8.18982 -12.04935,11.04241 -32.92727,3.56407 -34.45562,-12.34179 -1.35365,-14.0877 14.92942,-25.54512 32.11951,-22.60058 9.20177,1.57619 15.01054,4.83516 21.7737,12.21595 3.23092,3.52598 6.20717,6.07808 6.61387,5.67132 0.4067,-0.40675 0.73946,-10.78955 0.73946,-23.07288 0,-12.28332 -0.33276,-22.66604 -0.73946,-23.07269 -0.4067,-0.40666 -3.46149,2.23125 -6.78842,5.862 -8.67459,9.46679 -14.6715,12.22368 -26.47212,12.16974 -7.75059,-0.0354 -9.79921,-0.42773 -14.75704,-2.82595 -23.11781,-11.18262 -11.70673,-41.88779 13.556,-36.47679 7.54562,1.61619 12.70104,6.92477 12.70104,13.07835 0,15.10938 -22.35048,19.10518 -25.54368,4.56667 -1.33686,-6.08672 6.00539,-11.73131 11.36175,-8.7347 3.29067,1.84096 4.44301,6.4966 1.41181,5.70393 -4.11736,-1.07672 -6.92915,3.13036 -4.02988,6.02963 0.66,0.66 2.87734,1.2 4.92742,1.2 2.83572,0 4.22324,-0.63033 5.8,-2.63486 2.59062,-3.29344 2.60471,-5.40175 0.0693,-10.37154 -2.57312,-5.04376 -4.4848,-5.9936 -12.06294,-5.9936 -10.3427,0 -15.93378,5.32193 -15.93378,15.16673 0,9.82005 7.79411,16.72783 19.84721,17.59023 12.35772,0.88419 21.61068,-4.00326 29.48635,-15.57478 4.29088,-6.30449 4.30508,-6.56167 1.16946,-21.18218 -2.09733,-9.77925 -1.56398,-17.72626 1.53124,-22.81594 1.84681,-3.03683 2.22762,-3.18406 8.23543,-3.18406 6.00445,0 6.38609,0.14726 8.15883,3.14828 2.99195,5.06496 3.20485,15.02083 0.56976,26.64287 l -2.25834,9.96038 2.8376,5.2136 c 4.11418,7.55911 12.27366,14.64503 19.17359,16.6509 11.65,3.38675 24.85804,-0.35819 29.54056,-8.37577 3.93777,-6.7424 1.56424,-17.31208 -4.76619,-21.2245 -4.67941,-2.89204 -14.24449,-2.81124 -18.01182,0.15214 -8.05195,6.33367 -6.12367,16.8321 3.09162,16.8321 4.61341,0 6.53454,-1.74924 5.64731,-5.14203 -0.50743,-1.9404 -1.22279,-2.20591 -5.08292,-1.88657 -1.90195,0.15734 -2.26959,-0.22976 -2,-2.10589 0.43639,-3.03693 4.68173,-5.3706 8.17504,-4.49384 11.53208,2.89437 6.59547,18.62833 -5.84473,18.62833 -7.61139,0 -13.4896,-6.05616 -13.49626,-13.90484 -0.003,-3.82958 0.51105,-4.89454 3.93816,-8.15467 9.74835,-9.27338 27.31234,-6.30965 33.06795,5.57985 1.82755,3.77522 2.14397,5.70033 1.6784,10.2113 -0.74189,7.18818 -4.2981,11.77263 -12.23169,15.76836 -5.3233,2.68106 -6.91337,2.99674 -14.95656,2.96938 -7.91292,-0.0269 -9.70391,-0.38329 -14.82777,-2.95034 -5.47586,-2.74342 -16.67223,-13.24326 -16.67223,-15.63506 0,-0.55111 -0.45,-0.7239 -1,-0.38398 -1.19888,0.74095 -1.39981,47.13487 -0.20734,47.87186 0.43597,0.26944 2.69639,-1.97053 5.02317,-4.9777 7.51456,-9.71197 19.26102,-15.19364 30.12467,-14.05817 15.65062,1.63582 24.97699,9.62728 25.03754,21.45385 0.087,16.98775 -22.83109,25.5924 -35.20549,13.218 -3.21643,-3.21642 -3.77255,-4.41903 -3.77255,-8.15806 0,-5.9759 3.70842,-11.39706 8.75506,-12.7986 4.62599,-1.28471 4.86524,-1.28431 9.54696,0.0158 7.03563,1.95374 10.00442,10.71753 5.24343,15.47851 -4.11264,4.11261 -12.54545,2.29062 -12.54545,-2.7106 0,-1.63059 0.46352,-1.93537 2.25831,-1.48491 2.601,0.65281 4.12025,-0.12495 5.02214,-2.57104 0.86875,-2.35619 -1.80301,-4.77894 -5.27009,-4.77894 -4.23873,0 -5.92006,0.92469 -7.60469,4.18241 -1.83533,3.54913 -0.66769,8.1638 3.09218,12.22077 2.174,2.34578 3.12327,2.59682 9.81954,2.59682 6.00317,0 7.91777,-0.39713 10.06773,-2.0883 6.30572,-4.96008 7.81981,-14.98143 3.29625,-21.817 -5.07408,-7.66745 -17.73567,-10.96508 -29.24963,-7.61788 -4.80341,1.39639 -6.91223,2.79297 -11.88561,7.87132 -3.32537,3.39555 -6.89971,8.0763 -7.94298,10.40166 -1.88421,4.19974 -1.88163,4.2911 0.38661,13.70769 2.59532,10.77445 2.45569,20.84664 -0.3646,26.30048 -1.62228,3.13715 -1.88095,3.24203 -7.99585,3.24203 -4.85047,0 -6.70375,-0.42478 -7.97317,-1.82746 z" />
  </g>
</svg>
